<svg width="1088" height="492" viewBox="0 0 1088 492" fill="none" xmlns="http://www.w3.org/2000/svg">
<path d="M987.493 443.448C1021.12 484.267 1054.45 484.029 1087.49 442.734L1084.41 11.638L84.3958 12.6149L87.5159 449.87C120.555 408.575 153.888 408.337 187.513 449.156C221.139 489.975 254.471 489.737 287.511 448.443C320.55 407.148 353.883 406.91 387.508 447.729C421.134 488.548 454.466 488.31 487.506 447.016C520.545 405.721 553.878 405.483 587.503 446.302C621.129 487.121 654.461 486.883 687.501 445.589C720.54 404.294 753.873 404.056 787.498 444.875C821.124 485.694 854.456 485.456 887.496 444.162C920.535 402.867 953.868 402.629 987.493 443.448Z" fill="#1B1B1B" fill-opacity="0.7"/>
<path d="M903.009 432.575C936.842 502.447 970.114 493.796 1002.95 423.449L999.975 7.00001L-5.79556e-07 14.1355L3.03165 438.997C35.8638 368.65 69.1964 368.412 103.029 438.284C136.862 508.155 170.194 507.917 203.027 437.57C235.859 367.223 269.191 366.985 303.024 436.857C336.857 506.728 370.189 506.49 403.021 436.143C435.854 365.796 469.186 365.558 503.019 435.43C536.852 505.301 570.184 505.063 603.016 434.716C635.849 364.369 669.181 364.131 703.014 434.002C736.847 503.874 770.179 503.636 803.011 433.289C835.844 362.942 869.176 362.704 903.009 432.575Z" fill="#060606" fill-opacity="0.5"/>
<path d="M377.454 414.394C388.394 439.584 399.154 439.507 409.733 414.164L406.833 7.68502L84 4.30331L86.941 416.467C97.5205 391.123 108.28 391.047 119.22 416.237C130.16 441.427 140.92 441.35 151.499 416.006C162.079 390.663 172.839 390.586 183.779 415.776C194.719 440.966 205.478 440.889 216.058 415.546C226.637 390.202 237.397 390.125 248.337 415.315C259.277 440.505 270.037 440.428 280.616 415.085C291.196 389.741 301.955 389.665 312.895 414.855C323.835 440.045 334.595 439.968 345.175 414.624C355.754 389.281 366.514 389.204 377.454 414.394Z" fill="#F4DADA" fill-opacity="0.3"/>
<path d="M700.271 414.394C711.211 439.584 721.971 439.507 732.55 414.164L729.65 7.68502L406.817 4.30331L409.758 416.467C420.338 391.123 431.098 391.047 442.038 416.237C452.978 441.427 463.737 441.35 474.317 416.006C484.896 390.663 495.656 390.586 506.596 415.776C517.536 440.966 528.296 440.889 538.875 415.546C549.455 390.202 560.214 390.125 571.154 415.315C582.094 440.505 592.854 440.428 603.434 415.085C614.013 389.741 624.773 389.665 635.713 414.855C646.653 440.045 657.413 439.968 667.992 414.624C678.571 389.281 689.331 389.204 700.271 414.394Z" fill="#F4DADA" fill-opacity="0.3"/>
<path d="M1023.27 412.394C1034.21 437.584 1044.97 437.507 1055.55 412.164L1052.65 5.68502L729.817 2.30331L732.758 414.467C743.338 389.123 754.098 389.047 765.038 414.237C775.978 439.427 786.737 439.35 797.317 414.006C807.896 388.663 818.656 388.586 829.596 413.776C840.536 438.966 851.296 438.889 861.875 413.546C872.455 388.202 883.214 388.125 894.154 413.315C905.094 438.505 915.854 438.428 926.434 413.085C937.013 387.741 947.773 387.665 958.713 412.855C969.653 438.045 980.413 437.968 990.992 412.624C1001.57 387.281 1012.33 387.204 1023.27 412.394Z" fill="#F4DADA" fill-opacity="0.3"/>
</svg>
